<?xml version="1.0" encoding="UTF-8" standalone="no"?>
<!-- Created with Inkscape (http://www.inkscape.org/) -->

<svg
   xmlns:dc="http://purl.org/dc/elements/1.1/"
   xmlns:cc="http://creativecommons.org/ns#"
   xmlns:rdf="http://www.w3.org/1999/02/22-rdf-syntax-ns#"
   xmlns:svg="http://www.w3.org/2000/svg"
   xmlns="http://www.w3.org/2000/svg"
   xmlns:sodipodi="http://sodipodi.sourceforge.net/DTD/sodipodi-0.dtd"
   xmlns:inkscape="http://www.inkscape.org/namespaces/inkscape"
   sodipodi:docname="top.svg"
   inkscape:version="0.92.4 (5da689c313, 2019-01-14)"
   version="1.1"
   id="svg2"
   viewBox="0 0 1275.5906 637.79527"
   height="637.79529"
   width="1275.5906"
   inkscape:export-filename="\\FLPT\FldrRedir$\freeguardg\Desktop\Inkscape standard template - new test 2.png"
   inkscape:export-xdpi="300"
   inkscape:export-ydpi="300">
  <sodipodi:namedview
     units="px"
     guideopacity="0.49803922"
     guidecolor="#cf0072"
     inkscape:window-maximized="1"
     inkscape:window-y="-8"
     inkscape:window-x="-8"
     inkscape:window-height="1018"
     inkscape:window-width="1920"
     inkscape:snap-text-baseline="true"
     inkscape:snap-grids="false"
     inkscape:guide-bbox="true"
     showguides="true"
     objecttolerance="10"
     borderlayer="true"
     inkscape:showpageshadow="false"
     showborder="false"
     showgrid="true"
     inkscape:current-layer="layer1"
     inkscape:document-units="px"
     inkscape:cy="281.65856"
     inkscape:cx="798.64062"
     inkscape:zoom="0.64000001"
     inkscape:pageshadow="2"
     inkscape:pageopacity="1"
     borderopacity="1.0"
     bordercolor="#666666"
     pagecolor="#ffffff"
     id="base">
    <inkscape:grid
       visible="false"
       id="grid3622"
       type="xygrid" />
    <sodipodi:guide
       id="guide1504"
       position="17.125242,589.16356"
       orientation="637.7953,0"
       inkscape:locked="false" />
    <sodipodi:guide
       id="guide1506"
       position="7.4577666,172.08106"
       orientation="0,1275.5906"
       inkscape:locked="false" />
    <sodipodi:guide
       id="guide1508"
       position="1015.9135,584.46793"
       orientation="0,1275.5906"
       inkscape:locked="false" />
    <sodipodi:guide
       position="0.41432037,189.2063"
       orientation="1,0"
       id="guide1592"
       inkscape:locked="false" />
    <sodipodi:guide
       position="963.57109,122.77693"
       orientation="0,1"
       id="guide1594"
       inkscape:locked="false" />
    <sodipodi:guide
       position="1024.4762,154.95581"
       orientation="1,0"
       id="guide1596"
       inkscape:locked="false" />
    <sodipodi:guide
       position="1006.108,163.93276"
       orientation="1,0"
       id="guide1598"
       inkscape:locked="false" />
    <sodipodi:guide
       position="1006.108,637.77714"
       orientation="0,1"
       id="guide1600"
       inkscape:locked="false" />
  </sodipodi:namedview>
  <defs
     id="defs4">
    <pattern
       id="EMFhbasepattern"
       patternUnits="userSpaceOnUse"
       width="6"
       height="6"
       x="0"
       y="0" />
    <pattern
       id="EMFhbasepattern-2"
       patternUnits="userSpaceOnUse"
       width="6"
       height="6"
       x="0"
       y="0" />
    <pattern
       id="EMFhbasepattern-0"
       patternUnits="userSpaceOnUse"
       width="6"
       height="6"
       x="0"
       y="0" />
    <pattern
       id="EMFhbasepattern-25"
       patternUnits="userSpaceOnUse"
       width="6"
       height="6"
       x="0"
       y="0" />
    <linearGradient
       id="SVGID_1_"
       gradientUnits="userSpaceOnUse"
       x1="950.56812"
       y1="6.4900999"
       x2="950.56812"
       y2="38.9286">
      <stop
         offset="0"
         style="stop-color:#00A8E1"
         id="stop40" />
      <stop
         offset="0.9947"
         style="stop-color:#84329B"
         id="stop42" />
    </linearGradient>
  </defs>
  <metadata
     id="metadata7">
    <rdf:RDF>
      <cc:Work
         rdf:about="">
        <dc:format>image/svg+xml</dc:format>
        <dc:type
           rdf:resource="http://purl.org/dc/dcmitype/StillImage" />
        <dc:title></dc:title>
      </cc:Work>
    </rdf:RDF>
  </metadata>
  <g
     style="display:inline"
     inkscape:label="Bottom Bar"
     id="layer5"
     inkscape:groupmode="layer">
    <g
       style="display:inline"
       inkscape:label="Bottom Grey Bar"
       id="layer7"
       inkscape:groupmode="layer" />
    <g
       style="display:inline;opacity:1"
       inkscape:label="Graphic Dark Layer"
       id="layer3"
       inkscape:groupmode="layer" />
    <g
       style="display:inline"
       inkscape:label="Graphic Light Layer"
       id="layer6"
       inkscape:groupmode="layer" />
    <g
       style="display:inline"
       inkscape:label="Source text"
       id="layer8"
       inkscape:groupmode="layer" />
  </g>
  <g
     inkscape:label="Top Bar"
     id="layer4"
     inkscape:groupmode="layer">
    <g
       inkscape:label="Top Grey Bar"
       id="layer9"
       inkscape:groupmode="layer" />
    <g
       inkscape:label="Title text"
       id="layer1"
       inkscape:groupmode="layer">
      <rect
         id="rect3342_2_"
         x="0"
         y="2.4999999e-005"
         class="st4"
         width="1024.4"
         height="43.400002"
         style="fill:#001e62" />
      <g
         id="g3731_2_"
         transform="translate(0.5999963,3.1982422e-5)">
        <g
           id="g17">
          <path
             id="path3739_2_"
             class="st1"
             d="m 976,12.8 c 0.6,-0.1 1.2,-0.1 1.8,-0.1 0.6,0 1.2,0 1.8,0.1 v 17.8 c -0.6,0.1 -1.2,0.2 -1.8,0.2 -0.6,0 -1.2,-0.1 -1.8,-0.2 z"
             inkscape:connector-curvature="0"
             style="fill:#ffffff" />
        </g>
        <g
           id="g20">
          <path
             id="path3741_2_"
             class="st1"
             d="m 984.1,20.5 h -2 c 0,-0.3 -0.1,-0.5 -0.1,-0.7 0,-0.2 0,-0.4 0,-0.7 0,-0.2 0,-0.4 0,-0.6 0,-0.2 0,-0.4 0.1,-0.7 h 2 v -0.6 c 0,-0.8 0.1,-1.5 0.4,-2.1 0.2,-0.6 0.6,-1.1 1,-1.6 0.4,-0.4 1,-0.7 1.6,-1 0.6,-0.2 1.3,-0.3 2,-0.3 0.5,0 0.9,0 1.3,0.1 0.3,0 0.7,0.1 1.1,0.2 0,0.5 -0.1,1 -0.2,1.5 -0.1,0.4 -0.2,0.9 -0.4,1.3 -0.2,0 -0.4,-0.1 -0.6,-0.1 -0.2,0 -0.5,-0.1 -0.8,-0.1 -0.6,0 -1.1,0.1 -1.4,0.4 -0.4,0.3 -0.6,0.9 -0.6,1.7 v 0.5 h 3 c 0.1,0.3 0.1,0.5 0.1,0.7 0,0.2 0,0.4 0,0.7 0,0.2 0,0.4 0,0.6 0,0.2 0,0.4 -0.1,0.7 h -3 v 10.1 c -0.6,0.1 -1.2,0.2 -1.7,0.2 -0.6,0 -1.2,0 -1.8,-0.2 z"
             inkscape:connector-curvature="0"
             style="fill:#ffffff" />
        </g>
        <g
           id="g23">
          <path
             id="path3743_2_"
             class="st1"
             d="m 1003,21.4 c 0.6,-0.1 1.2,-0.1 1.8,-0.1 0.6,0 1.2,0.1 1.8,0.1 v 8.7 c -0.9,0.3 -1.7,0.5 -2.7,0.6 -0.9,0.1 -1.7,0.2 -2.4,0.2 -1.5,0 -2.7,-0.2 -3.8,-0.7 -1.1,-0.5 -2,-1.1 -2.7,-1.9 -0.7,-0.8 -1.3,-1.8 -1.6,-2.9 -0.4,-1.1 -0.5,-2.3 -0.5,-3.7 0,-1.3 0.2,-2.5 0.6,-3.7 0.4,-1.1 0.9,-2.1 1.6,-2.9 0.7,-0.8 1.6,-1.5 2.6,-1.9 1,-0.5 2.2,-0.7 3.6,-0.7 0.8,0 1.5,0.1 2.2,0.2 0.7,0.1 1.4,0.3 2.1,0.6 0,0.5 -0.1,1 -0.3,1.4 -0.2,0.5 -0.3,0.9 -0.5,1.4 -0.6,-0.2 -1.1,-0.3 -1.5,-0.4 -0.4,-0.1 -1,-0.1 -1.6,-0.1 -1.6,0 -2.8,0.5 -3.6,1.5 -0.8,1 -1.3,2.6 -1.3,4.6 0,2 0.4,3.5 1.3,4.5 0.8,1 2.1,1.5 3.7,1.5 0.3,0 0.5,0 0.8,-0.1 0.2,0 0.4,-0.1 0.6,-0.1 z"
             inkscape:connector-curvature="0"
             style="fill:#ffffff" />
        </g>
      </g>
      <rect
         x="15.5"
         y="8.900034"
         class="st5"
         width="890.5"
         height="28"
         id="rect36"
         style="fill:none" />
      <polygon
         class="st8"
         points="959.5,43.4 972.1,43.4 941.8,0 929.1,0 "
         id="polygon45"
         style="fill:url(#SVGID_1_)"
         transform="translate(0.5999963,3.1982422e-5)" />
      <text
         xml:space="preserve"
         style="font-style:normal;font-weight:normal;font-size:40px;line-height:1.25;font-family:sans-serif;letter-spacing:0px;word-spacing:0px;fill:#ffffff;fill-opacity:1;stroke:none"
         x="15.29278"
         y="26.006195"
         id="text5412"><tspan
           sodipodi:role="line"
           id="tspan5410"
           x="15.29278"
           y="26.006195"
           style="font-style:normal;font-variant:normal;font-weight:600;font-stretch:normal;font-size:20px;font-family:'Open Sans';-inkscape-font-specification:'Open Sans Semi-Bold';fill:#ffffff;fill-opacity:1">Non-reshuffle ministerial resignations at different points in PMs' tenure, 1900 to 2019</tspan></text>
    </g>
  </g>
</svg>
